<svg xmlns="http://www.w3.org/2000/svg" width="300" height="180"><path d="M-65,-42L20,-56L71,-65Z" fill="#ffded0" stroke="#ffded0" stroke-width="1.51"/><path d="M138,239L94,243L196,243Z" fill="#b53d2d" stroke="#b53d2d" stroke-width="1.51"/><path d="M71,-65L149,-44L254,-61Z" fill="#ffac93" stroke="#ffac93" stroke-width="1.51"/><path d="M264,218L196,243L314,222Z" fill="#aa1018" stroke="#aa1018" stroke-width="1.51"/><path d="M318,101L309,135L356,153Z" fill="#c2251f" stroke="#c2251f" stroke-width="1.51"/><path d="M314,222L196,243L360,243Z" fill="#980b15" stroke="#980b15" stroke-width="1.51"/><path d="M296,183L314,222L364,175Z" fill="#a71016" stroke="#a71016" stroke-width="1.51"/><path d="M314,222L360,243L364,175Z" fill="#900913" stroke="#900913" stroke-width="1.51"/><path d="M324,38L359,58L365,31Z" fill="#bd5543" stroke="#bd5543" stroke-width="1.51"/><path d="M343,-8L324,38L365,31Z" fill="#c2624f" stroke="#c2624f" stroke-width="1.51"/><path d="M335,-45L343,-8L365,31Z" fill="#c36f5d" stroke="#c36f5d" stroke-width="1.51"/><path d="M318,101L356,153L365,96Z" fill="#b82c23" stroke="#b82c23" stroke-width="1.51"/><path d="M359,58L324,80L365,96Z" fill="#bc4332" stroke="#bc4332" stroke-width="1.51"/><path d="M324,80L318,101L365,96Z" fill="#c23d2c" stroke="#c23d2c" stroke-width="1.51"/><path d="M356,153L364,175L365,96Z" fill="#a91a1b" stroke="#a91a1b" stroke-width="1.51"/><path d="M365,31L359,58L365,96Z" fill="#b44937" stroke="#b44937" stroke-width="1.51"/><path d="M356,153L296,183L364,175Z" fill="#aa0f17" stroke="#aa0f17" stroke-width="1.51"/><path d="M324,38L324,80L359,58Z" fill="#c4503b" stroke="#c4503b" stroke-width="1.51"/><path d="M309,135L296,183L356,153Z" fill="#bb191b" stroke="#bb191b" stroke-width="1.51"/><path d="M335,-45L322,-13L343,-8Z" fill="#cd7967" stroke="#cd7967" stroke-width="1.51"/><path d="M322,-13L324,38L343,-8Z" fill="#cc6d58" stroke="#cc6d58" stroke-width="1.51"/><path d="M282,4L282,19L322,-13Z" fill="#dc745d" stroke="#dc745d" stroke-width="1.51"/><path d="M322,-13L282,19L324,38Z" fill="#d66c55" stroke="#d66c55" stroke-width="1.51"/><path d="M321,-51L322,-13L335,-45Z" fill="#d3806f" stroke="#d3806f" stroke-width="1.51"/><path d="M281,147L296,183L309,135Z" fill="#c51d1d" stroke="#c51d1d" stroke-width="1.51"/><path d="M254,-61L282,4L321,-51Z" fill="#e58672" stroke="#e58672" stroke-width="1.51"/><path d="M321,-51L282,4L322,-13Z" fill="#db7d69" stroke="#db7d69" stroke-width="1.51"/><path d="M259,72L277,95L324,80Z" fill="#da4935" stroke="#da4935" stroke-width="1.51"/><path d="M277,95L318,101L324,80Z" fill="#d2412e" stroke="#d2412e" stroke-width="1.51"/><path d="M259,72L324,80L324,38Z" fill="#d6523d" stroke="#d6523d" stroke-width="1.51"/><path d="M282,19L259,72L324,38Z" fill="#db5f48" stroke="#db5f48" stroke-width="1.51"/><path d="M277,95L309,135L318,101Z" fill="#d13629" stroke="#d13629" stroke-width="1.51"/><path d="M296,183L272,204L314,222Z" fill="#af1117" stroke="#af1117" stroke-width="1.51"/><path d="M272,204L264,218L314,222Z" fill="#ac1017" stroke="#ac1017" stroke-width="1.51"/><path d="M277,95L281,147L309,135Z" fill="#d32c24" stroke="#d32c24" stroke-width="1.51"/><path d="M218,221L196,243L264,218Z" fill="#b41c1c" stroke="#b41c1c" stroke-width="1.51"/><path d="M254,-61L239,-47L282,4Z" fill="#ef8a74" stroke="#ef8a74" stroke-width="1.51"/><path d="M281,147L272,204L296,183Z" fill="#bf151b" stroke="#bf151b" stroke-width="1.51"/><path d="M149,-44L189,-35L254,-61Z" fill="#ff9c84" stroke="#ff9c84" stroke-width="1.51"/><path d="M224,112L240,142L277,95Z" fill="#e3392b" stroke="#e3392b" stroke-width="1.51"/><path d="M236,192L272,204L281,147Z" fill="#c4171c" stroke="#c4171c" stroke-width="1.51"/><path d="M240,142L236,192L281,147Z" fill="#d22020" stroke="#d22020" stroke-width="1.51"/><path d="M277,95L240,142L281,147Z" fill="#db2c24" stroke="#db2c24" stroke-width="1.51"/><path d="M239,-47L229,3L282,4Z" fill="#ef836b" stroke="#ef836b" stroke-width="1.51"/><path d="M216,33L259,72L282,19Z" fill="#e9654c" stroke="#e9654c" stroke-width="1.51"/><path d="M282,4L229,3L282,19Z" fill="#e7755d" stroke="#e7755d" stroke-width="1.51"/><path d="M229,3L216,33L282,19Z" fill="#ee755a" stroke="#ee755a" stroke-width="1.51"/><path d="M216,33L230,69L259,72Z" fill="#ed6046" stroke="#ed6046" stroke-width="1.51"/><path d="M259,72L224,112L277,95Z" fill="#e54733" stroke="#e54733" stroke-width="1.51"/><path d="M236,192L264,218L272,204Z" fill="#bb151a" stroke="#bb151a" stroke-width="1.51"/><path d="M189,-35L239,-47L254,-61Z" fill="#fa947e" stroke="#fa947e" stroke-width="1.51"/><path d="M230,69L224,112L259,72Z" fill="#eb5039" stroke="#eb5039" stroke-width="1.51"/><path d="M236,192L218,221L264,218Z" fill="#be1b1c" stroke="#be1b1c" stroke-width="1.51"/><path d="M193,94L224,112L230,69Z" fill="#f25139" stroke="#f25139" stroke-width="1.51"/><path d="M189,-35L229,3L239,-47Z" fill="#fb9077" stroke="#fb9077" stroke-width="1.51"/><path d="M195,176L236,192L240,142Z" fill="#d72522" stroke="#d72522" stroke-width="1.51"/><path d="M204,135L195,176L240,142Z" fill="#e33127" stroke="#e33127" stroke-width="1.51"/><path d="M224,112L204,135L240,142Z" fill="#e93629" stroke="#e93629" stroke-width="1.51"/><path d="M189,-35L183,-22L229,3Z" fill="#fe9177" stroke="#fe9177" stroke-width="1.51"/><path d="M195,176L218,221L236,192Z" fill="#cd2520" stroke="#cd2520" stroke-width="1.51"/><path d="M184,25L216,33L229,3Z" fill="#f87b5f" stroke="#f87b5f" stroke-width="1.51"/><path d="M216,33L182,58L230,69Z" fill="#f5694c" stroke="#f5694c" stroke-width="1.51"/><path d="M182,58L193,94L230,69Z" fill="#f75f44" stroke="#f75f44" stroke-width="1.51"/><path d="M183,-22L184,25L229,3Z" fill="#fc876b" stroke="#fc876b" stroke-width="1.51"/><path d="M193,94L204,135L224,112Z" fill="#f14631" stroke="#f14631" stroke-width="1.51"/><path d="M184,25L182,58L216,33Z" fill="#fa7658" stroke="#fa7658" stroke-width="1.51"/><path d="M162,201L196,243L218,221Z" fill="#c12b22" stroke="#c12b22" stroke-width="1.51"/><path d="M195,176L162,201L218,221Z" fill="#d02f25" stroke="#d02f25" stroke-width="1.51"/><path d="M193,94L140,110L204,135Z" fill="#f55239" stroke="#f55239" stroke-width="1.51"/><path d="M140,110L144,161L204,135Z" fill="#f14d36" stroke="#f14d36" stroke-width="1.51"/><path d="M144,161L195,176L204,135Z" fill="#e63e2d" stroke="#e63e2d" stroke-width="1.51"/><path d="M183,-22L150,3L184,25Z" fill="#fe9073" stroke="#fe9073" stroke-width="1.51"/><path d="M162,201L138,239L196,243Z" fill="#bf3729" stroke="#bf3729" stroke-width="1.51"/><path d="M150,3L153,17L184,25Z" fill="#fd8e6e" stroke="#fd8e6e" stroke-width="1.51"/><path d="M182,58L161,55L193,94Z" fill="#f96b4c" stroke="#f96b4c" stroke-width="1.51"/><path d="M144,161L162,201L195,176Z" fill="#dd3e2e" stroke="#dd3e2e" stroke-width="1.51"/><path d="M161,55L140,110L193,94Z" fill="#fa6748" stroke="#fa6748" stroke-width="1.51"/><path d="M161,55L182,58L184,25Z" fill="#fa7859" stroke="#fa7859" stroke-width="1.51"/><path d="M149,-44L183,-22L189,-35Z" fill="#ffa187" stroke="#ffa187" stroke-width="1.51"/><path d="M71,-65L117,-39L149,-44Z" fill="#ffb9a1" stroke="#ffb9a1" stroke-width="1.51"/><path d="M153,17L161,55L184,25Z" fill="#fc8364" stroke="#fc8364" stroke-width="1.51"/><path d="M149,-44L150,3L183,-22Z" fill="#ffa084" stroke="#ffa084" stroke-width="1.51"/><path d="M38,224L-64,240L94,243Z" fill="#c06c5b" stroke="#c06c5b" stroke-width="1.51"/><path d="M149,-44L125,-6L150,3Z" fill="#ffa487" stroke="#ffa487" stroke-width="1.51"/><path d="M153,17L104,38L161,55Z" fill="#fd8a69" stroke="#fd8a69" stroke-width="1.51"/><path d="M116,76L140,110L161,55Z" fill="#fc7353" stroke="#fc7353" stroke-width="1.51"/><path d="M144,161L119,187L162,201Z" fill="#dd4934" stroke="#dd4934" stroke-width="1.51"/><path d="M119,187L138,239L162,201Z" fill="#d14632" stroke="#d14632" stroke-width="1.51"/><path d="M104,38L116,76L161,55Z" fill="#fc8463" stroke="#fc8463" stroke-width="1.51"/><path d="M140,110L100,147L144,161Z" fill="#f25b41" stroke="#f25b41" stroke-width="1.51"/><path d="M117,-39L125,-6L149,-44Z" fill="#ffae93" stroke="#ffae93" stroke-width="1.51"/><path d="M150,3L125,-6L153,17Z" fill="#ff997a" stroke="#ff997a" stroke-width="1.51"/><path d="M125,-6L104,38L153,17Z" fill="#fd9979" stroke="#fd9979" stroke-width="1.51"/><path d="M119,187L94,243L138,239Z" fill="#c64c39" stroke="#c64c39" stroke-width="1.51"/><path d="M100,147L119,187L144,161Z" fill="#e6563e" stroke="#e6563e" stroke-width="1.51"/><path d="M81,222L94,243L119,187Z" fill="#cb5540" stroke="#cb5540" stroke-width="1.51"/><path d="M116,76L99,94L140,110Z" fill="#fb7554" stroke="#fb7554" stroke-width="1.51"/><path d="M99,94L100,147L140,110Z" fill="#f86a4d" stroke="#f86a4d" stroke-width="1.51"/><path d="M73,14L104,38L125,-6Z" fill="#fda284" stroke="#fda284" stroke-width="1.51"/><path d="M117,-39L66,1L125,-6Z" fill="#ffb095" stroke="#ffb095" stroke-width="1.51"/><path d="M66,1L73,14L125,-6Z" fill="#fdac90" stroke="#fdac90" stroke-width="1.51"/><path d="M99,94L70,122L100,147Z" fill="#f97254" stroke="#f97254" stroke-width="1.51"/><path d="M104,38L75,72L116,76Z" fill="#fc8c6b" stroke="#fc8c6b" stroke-width="1.51"/><path d="M100,147L60,196L119,187Z" fill="#e25f47" stroke="#e25f47" stroke-width="1.51"/><path d="M60,196L81,222L119,187Z" fill="#d65d46" stroke="#d65d46" stroke-width="1.51"/><path d="M71,-65L66,1L117,-39Z" fill="#ffbea7" stroke="#ffbea7" stroke-width="1.51"/><path d="M75,72L99,94L116,76Z" fill="#fc8362" stroke="#fc8362" stroke-width="1.51"/><path d="M65,141L60,196L100,147Z" fill="#eb6a50" stroke="#eb6a50" stroke-width="1.51"/><path d="M73,14L75,72L104,38Z" fill="#fc9a7b" stroke="#fc9a7b" stroke-width="1.51"/><path d="M70,122L65,141L100,147Z" fill="#f57054" stroke="#f57054" stroke-width="1.51"/><path d="M75,72L70,122L99,94Z" fill="#fc8161" stroke="#fc8161" stroke-width="1.51"/><path d="M81,222L38,224L94,243Z" fill="#c25c48" stroke="#c25c48" stroke-width="1.51"/><path d="M-11,215L-64,240L38,224Z" fill="#cb7a6a" stroke="#cb7a6a" stroke-width="1.51"/><path d="M40,184L60,196L65,141Z" fill="#e66e56" stroke="#e66e56" stroke-width="1.51"/><path d="M20,-56L30,3L66,1Z" fill="#fdc8b2" stroke="#fdc8b2" stroke-width="1.51"/><path d="M29,83L25,100L70,122Z" fill="#fd8e70" stroke="#fd8e70" stroke-width="1.51"/><path d="M20,-56L66,1L71,-65Z" fill="#ffccb7" stroke="#ffccb7" stroke-width="1.51"/><path d="M29,83L70,122L75,72Z" fill="#fd8c6c" stroke="#fd8c6c" stroke-width="1.51"/><path d="M73,14L40,20L75,72Z" fill="#fda688" stroke="#fda688" stroke-width="1.51"/><path d="M60,196L38,224L81,222Z" fill="#d1664f" stroke="#d1664f" stroke-width="1.51"/><path d="M30,154L40,184L65,141Z" fill="#ed765d" stroke="#ed765d" stroke-width="1.51"/><path d="M40,20L29,83L75,72Z" fill="#fda082" stroke="#fda082" stroke-width="1.51"/><path d="M66,1L40,20L73,14Z" fill="#fdb397" stroke="#fdb397" stroke-width="1.51"/><path d="M25,100L65,141L70,122Z" fill="#fb8063" stroke="#fb8063" stroke-width="1.51"/><path d="M-65,-42L-22,-40L20,-56Z" fill="#ffe5da" stroke="#ffe5da" stroke-width="1.51"/><path d="M25,100L30,154L65,141Z" fill="#f98164" stroke="#f98164" stroke-width="1.51"/><path d="M30,3L40,20L66,1Z" fill="#fcba9f" stroke="#fcba9f" stroke-width="1.51"/><path d="M40,184L38,224L60,196Z" fill="#d86e56" stroke="#d86e56" stroke-width="1.51"/><path d="M-11,124L3,149L25,100Z" fill="#fe9075" stroke="#fe9075" stroke-width="1.51"/><path d="M-19,32L-24,68L29,83Z" fill="#ffb197" stroke="#ffb197" stroke-width="1.51"/><path d="M25,100L3,149L30,154Z" fill="#fa886c" stroke="#fa886c" stroke-width="1.51"/><path d="M20,-56L-23,-16L30,3Z" fill="#fed5c2" stroke="#fed5c2" stroke-width="1.51"/><path d="M30,3L-19,32L40,20Z" fill="#febfa6" stroke="#febfa6" stroke-width="1.51"/><path d="M-19,32L29,83L40,20Z" fill="#feb197" stroke="#feb197" stroke-width="1.51"/><path d="M30,154L3,149L40,184Z" fill="#ee7d65" stroke="#ee7d65" stroke-width="1.51"/><path d="M3,149L-19,201L40,184Z" fill="#e87f68" stroke="#e87f68" stroke-width="1.51"/><path d="M-19,201L-11,215L40,184Z" fill="#dd7d67" stroke="#dd7d67" stroke-width="1.51"/><path d="M-11,215L38,224L40,184Z" fill="#d7755f" stroke="#d7755f" stroke-width="1.51"/><path d="M-22,-40L-23,-16L20,-56Z" fill="#fee0d1" stroke="#fee0d1" stroke-width="1.51"/><path d="M-23,-16L-19,32L30,3Z" fill="#fdcbb6" stroke="#fdcbb6" stroke-width="1.51"/><path d="M-24,68L25,100L29,83Z" fill="#ffa185" stroke="#ffa185" stroke-width="1.51"/><path d="M-24,68L-11,124L25,100Z" fill="#ffa084" stroke="#ffa084" stroke-width="1.51"/><path d="M-24,68L-46,98L-11,124Z" fill="#ffa78c" stroke="#ffa78c" stroke-width="1.51"/><path d="M-11,124L-57,142L3,149Z" fill="#fc947c" stroke="#fc947c" stroke-width="1.51"/><path d="M-57,142L-19,201L3,149Z" fill="#f18c76" stroke="#f18c76" stroke-width="1.51"/><path d="M-57,142L-52,203L-19,201Z" fill="#e98b78" stroke="#e98b78" stroke-width="1.51"/><path d="M-23,-16L-57,36L-19,32Z" fill="#ffcdba" stroke="#ffcdba" stroke-width="1.51"/><path d="M-46,98L-57,142L-11,124Z" fill="#ff9e85" stroke="#ff9e85" stroke-width="1.51"/><path d="M-19,201L-52,203L-11,215Z" fill="#dc8471" stroke="#dc8471" stroke-width="1.51"/><path d="M-52,203L-64,240L-11,215Z" fill="#d38373" stroke="#d38373" stroke-width="1.51"/><path d="M-56,-25L-57,36L-23,-16Z" fill="#ffd9c8" stroke="#ffd9c8" stroke-width="1.51"/><path d="M-56,-25L-23,-16L-22,-40Z" fill="#ffe2d5" stroke="#ffe2d5" stroke-width="1.51"/><path d="M-57,36L-24,68L-19,32Z" fill="#ffbfa8" stroke="#ffbfa8" stroke-width="1.51"/><path d="M-63,74L-46,98L-24,68Z" fill="#ffb199" stroke="#ffb199" stroke-width="1.51"/><path d="M-57,36L-63,74L-24,68Z" fill="#ffbca5" stroke="#ffbca5" stroke-width="1.51"/><path d="M-65,-42L-56,-25L-22,-40Z" fill="#ffe7dd" stroke="#ffe7dd" stroke-width="1.51"/><path d="M-63,74L-57,142L-46,98Z" fill="#ffa891" stroke="#ffa891" stroke-width="1.51"/><path d="M-65,-42L-57,36L-56,-25Z" fill="#ffdfd2" stroke="#ffdfd2" stroke-width="1.51"/><path d="M-57,142L-64,240L-52,203Z" fill="#e48c7a" stroke="#e48c7a" stroke-width="1.51"/><path d="M-65,-42L-63,74L-57,36Z" fill="#ffd0be" stroke="#ffd0be" stroke-width="1.51"/><path d="M-63,74L-64,240L-57,142Z" fill="#f99783" stroke="#f99783" stroke-width="1.51"/></svg>